# AST/ASF file generated using VICON BodyLanguage
# -----------------------------------------------
:version 1.10
:name VICON
:units
  mass 1.0
  length 0.45
  angle deg
:documentation
   .ast/.asf automatically generated from VICON data using
   VICON BodyBuilder and BodyLanguage model FoxedUp or BRILLIANT.MOD
:root
   order TX TY TZ RX RY RZ
   axis XYZ
   position 0 0 0  
   orientation 0 0 0 
:bonedata
  begin
     id 1 
     name lhipjoint
     direction 0.722297 -0.617336 0.311742 
     length 2.6635 
     axis 0 0 0  XYZ
  end
  begin
     id 2 
     name lfemur
     direction 0.34202 -0.939693 0  
     length 7.39349  
     axis 0 0 20  XYZ
    dof rx ry rz
    limits (-160.0 20.0)
           (-70.0 70.0)
           (-60.0 70.0)
  end
  begin
     id 3 
     name ltibia
     direction 0.34202 -0.939693 0   
     length 7.36294   
     axis 0 0 20   XYZ
    dof rx
    limits (-10.0 170.0)
  end
  begin
     id 4 
     name lfoot
     direction 0.104879 -0.288152 0.951824   
     length 2.16981   
     axis -90 7.62852e-016 20   XYZ
    dof rx rz
    limits (-45.0 90.0)
           (-70.0 20.0)
  end
  begin
     id 5 
     name ltoes
     direction 1.53586e-011 -4.21895e-011 1   
     length 1.08218   
     axis -90 7.62852e-016 20   XYZ
    dof rx
    limits (-90.0 20.0)
  end
  begin
     id 6 
     name rhipjoint
     direction -0.75102 -0.589393 0.297631   
     length 2.78977  
     axis 0 0 0  XYZ 
  end
  begin
     id 7 
     name rfemur
     direction -0.34202 -0.939693 0   
     length 7.46076   
     axis 0 0 -20   XYZ
    dof rx ry rz
    limits (-160.0 20.0)
           (-70.0 70.0)
           (-70.0 60.0)
  end
  begin
     id 8 
     name rtibia
     direction -0.34202 -0.939693 0   
     length 7.31726   
     axis 0 0 -20   XYZ
    dof rx
    limits (-10.0 170.0)
 end
 begin
     id 9 
     name rfoot
     direction -0.107991 -0.296704 0.948844   
     length 2.09388  
     axis -90 -7.62852e-016 -20   XYZ
    dof rx rz
    limits (-45.0 90.0)
           (-20.0 70.0)
  end
  begin
     id 10 
     name rtoes
     direction -1.53559e-011 -4.21911e-011 1   
     length 1.04433   
     axis -90 -7.62852e-016 -20   XYZ
    dof rx
    limits (-90.0 20.0)
  end
  begin
     id 11 
     name lowerback
     direction 0.0165164 0.98272 0.184358   
     length 1.71896   
     axis 0 0 0   XYZ
    dof rx ry rz
    limits (-20.0 45.0)
           (-30.0 30.0)
           (-30.0 30.0)
  end
  begin
     id 12 
     name upperback
     direction -0.00887249 0.992297 0.123566   
     length 1.71504   
     axis 0 0 0   XYZ
    dof rx ry rz
    limits (-20.0 45.0)
           (-30.0 30.0)
           (-30.0 30.0)
  end
  begin
     id 13 
     name thorax
     direction -0.0157026 0.998908 0.0440032   
     length 1.77022   
     axis 0 0 0   XYZ
    dof rx ry rz
    limits (-20.0 45.0)
           (-30.0 30.0)
           (-30.0 30.0)
  end
  begin
     id 14 
     name lowerneck
     direction -0.0238856 0.998137 0.0561411   
     length 1.89341   
     axis 0 0 0   XYZ
    dof rx ry rz
    limits (-20.0 45.0)
           (-30.0 30.0)
           (-30.0 30.0)
  end
  begin
     id 15 
     name upperneck
     direction 0.0276574 0.952253 -0.304056   
     length 1.86999   
     axis 0 0 0   XYZ
    dof rx ry rz
    limits (-20.0 45.0)
           (-30.0 30.0)
           (-30.0 30.0)
  end
  begin
     id 16
     name head
     direction 0.00800083 0.994258 -0.106712  
     length 1.91492  
     axis 0 0 0   XYZ
    dof rx ry rz
    limits (-20.0 45.0)
           (-30.0 30.0)
           (-30.0 30.0)
  end
  begin
     id 17 
     name lclavicle
     direction 0.97203 0.225407 0.06595  
     length 3.34889  
     axis 0 0 0   XYZ
    dof ry rz
    limits (-20.0 10.0)
           (0.0 20.0)
  end
  begin
     id 18 
     name lhumerus
     direction 1 -4.48973e-011 2.20267e-027   
     length 4.85645   
     axis 180 -30 -90   XYZ
    dof rx ry rz
    limits (-60.0 90.0)
           (-90.0 90.0)
           (-90.0 90.0)
  end
  begin
     id 19
     name lradius
     direction 1 -4.4897e-011 4.60472e-027   
     length 2.79874   
     axis 180 -30 -90   XYZ
    dof rx
    limits (-10.0 170.0)
  end
  begin
     id 20
     name lwrist
     direction 1 -4.48952e-011 1.14928e-026   
     length 1.39937   
     axis -6.29373e-015 90 90   XYZ
    dof ry
    limits (-180.0 0.0)
 end
  begin
     id 21 
     name lhand
     direction 1 -4.48967e-011 2.29886e-026   
     length 0.573398   
     axis -1.46689e-014 90 90   XYZ
    dof rx rz
    limits (-90.0 90.0)
           (-45.0 45.0)
  end
  begin
     id 22 
     name lfingers
     direction 1 -4.48955e-011 4.59726e-026   
     length 0.462289   
     axis -2.93383e-014 90 90   XYZ
    dof rx
    limits (0.0 90.0)
  end
  begin
     id 23
     name lthumb
     direction 0.707107 -6.34866e-011 0.707107   
     length 0.663757   
     axis -90 45 5.69224e-014   XYZ
    dof rx rz
    limits (-45.0 45.0)
           (-45.0 45.0)
  end
  begin
     id 24 
     name rclavicle
     direction -0.981571 0.157346 0.108443   
     length 3.35257  
     axis 0 0 0   XYZ 
    dof ry rz
    limits (-10.0 20.0)
           (-20.0 0.0)
  end
  begin
     id 25 
     name rhumerus
     direction -1 -4.48967e-011 8.58308e-029  
     length 4.67018   
     axis 180 30 90   XYZ
    dof rx ry rz
    limits (-90.0 60.0)
           (-90.0 90.0)
           (-90.0 90.0)
  end
  begin
     id 26 
     name rradius
     direction -1 -4.48958e-011 4.52548e-027   
     length 2.65534   
     axis 180 30 90   XYZ
    dof rx
    limits (-10.0 170.0)
  end
  begin
     id 27 
     name rwrist
     direction -1 -4.48977e-011 1.14952e-026   
     length 1.32767   
     axis -6.29373e-015 -90 -90   XYZ
    dof ry
    limits (-180.0 0.0)
  end
  begin
     id 28
     name rhand
     direction -1 -4.48924e-011 2.29804e-026   
     length 0.594069   
     axis -1.46689e-014 -90 -90   XYZ
    dof rx rz
    limits (-90.0 90.0)
           (-45.0 45.0)
  end
  begin
     id 29
     name rfingers
     direction -1 -4.48998e-011 4.59888e-026   
     length 0.478954   
     axis -2.93383e-014 -90 -90   XYZ
    dof rx
    limits (0.0 90.0)
  end
  begin
     id 30
     name rthumb
     direction -0.707107 -6.34933e-011 0.707107   
     length 0.687685   
     axis -90 -45 -5.69224e-014   XYZ
    dof rx rz
    limits (-45.0 45.0)
           (-45.0 45.0)
  end
:hierarchy
  begin
    root lhipjoint rhipjoint lowerback
    lhipjoint lfemur
    lfemur ltibia
    ltibia lfoot
    lfoot ltoes
    rhipjoint rfemur
    rfemur rtibia
    rtibia rfoot
    rfoot rtoes
    lowerback upperback
    upperback thorax
    thorax lowerneck lclavicle rclavicle
    lowerneck upperneck
    upperneck head
    lclavicle lhumerus
    lhumerus lradius
    lradius lwrist
    lwrist lhand lthumb
    lhand lfingers
    rclavicle rhumerus
    rhumerus rradius
    rradius rwrist
    rwrist rhand rthumb
    rhand rfingers
  end

#!OML:ASF E:\pregnant2\Project 1\Capture day 1\Session 1\pregnant2.ASF
:FULLY-SPECIFIED
:DEGREES
1306
root -5.07266 1.38699 17.9704 -74.6665 -1.29745 1.51636
lowerback -7.41534 2.11628 1.22415
upperback -10.503 2.5232 -3.59474
thorax -6.65335 0.966047 -4.42123
lowerneck -15.1156 -0.197975 1.24141
upperneck 23.2386 -0.60255 -0.0816732
head 9.86883 -0.187476 -0.316631
rclavicle -3.97569e-015 -2.5842e-015
rhumerus -30.05 8.12005 -20.3194
rradius 37.6791
rwrist -13.822
rhand -21.3871 -37.1865
rfingers 7.12502
rthumb 185.001 112.893
lclavicle -3.97569e-015 -2.5842e-015
lhumerus -24.1438 -12.7906 24.1516
lradius 45.6027
lwrist 35.4447
lhand -22.2486 41.7133
lfingers 7.12502
lthumb 184.169 -108.348
rfemur -64.5825 -11.1511 19.6915
rtibia 108.054
rfoot 26.5866 -9.98583
rtoes 21.5491
lfemur -62.2717 -0.268354 -22.0167
ltibia 105.246
lfoot 30.7094 -9.88435
ltoes -16.0828
1307
root -5.07245 1.38667 17.969 -74.6703 -1.2862 1.52275
lowerback -7.372 2.10256 1.19937
upperback -10.5088 2.50617 -3.58711
thorax -6.68689 0.959072 -4.4017
lowerneck -15.2472 -0.216225 1.09964
upperneck 23.4059 -0.653505 0.146211
head 9.95481 -0.195712 -0.220286
rclavicle 2.22639e-014 -1.74931e-014
rhumerus -30.002 8.72239 -20.6337
rradius 38.4407
rwrist -14.4486
rhand -21.5747 -36.8155
rfingers 7.12502
rthumb 184.819 113.259
lclavicle 2.22639e-014 -1.74931e-014
lhumerus -24.1114 -13.3488 24.6673
lradius 46.9268
lwrist 35.9571
lhand -22.2987 41.2712
lfingers 7.12502
lthumb 184.12 -108.789
rfemur -64.6315 -11.4828 19.7173
rtibia 108.126
rfoot 26.0434 -10.2479
rtoes 21.7913
lfemur -62.256 -0.323237 -22.0229
ltibia 105.224
lfoot 30.7374 -9.85894
ltoes -16.0841
1308
root -5.07254 1.38655 17.9675 -74.669 -1.28234 1.53213
lowerback -7.33051 2.09384 1.18143
upperback -10.5235 2.49518 -3.57927
thorax -6.7283 0.954254 -4.38593
lowerneck -15.411 -0.255761 0.827022
upperneck 23.6572 -0.749647 0.557403
head 10.0788 -0.214102 -0.0431535
rclavicle -1.82882e-014 7.7526e-015
rhumerus -29.9436 9.31911 -20.9321
rradius 39.1974
rwrist -15.2147
rhand -21.8021 -36.434
rfingers 7.12502
rthumb 184.6 113.636
lclavicle -1.82882e-014 7.7526e-015
lhumerus -24.0282 -13.9148 25.1976
lradius 48.1804
lwrist 36.5464
lhand -22.4229 40.8874
lfingers 7.12502
lthumb 184 -109.17
rfemur -64.6887 -11.8101 19.7536
rtibia 108.203
rfoot 25.5169 -10.4234
rtoes 21.9249
lfemur -62.2444 -0.370193 -22.02
ltibia 105.202
lfoot 30.7627 -9.84244
ltoes -16.0958
1309
root -5.07282 1.38662 17.9661 -74.6605 -1.28358 1.54521
lowerback -7.29478 2.09078 1.17055
upperback -10.5464 2.49102 -3.57284
thorax -6.77473 0.951954 -4.37556
lowerneck -15.6147 -0.322258 0.402404
upperneck 23.9985 -0.90167 1.1779
head 10.2465 -0.24589 0.227155
rclavicle 3.18055e-015 -2.92213e-014
rhumerus -29.8744 9.8944 -21.2114
rradius 39.928
rwrist -15.9792
rhand -22.0272 -36.0428
rfingers 7.12502
rthumb 184.383 114.023
lclavicle 3.18055e-015 -2.92213e-014
lhumerus -23.8874 -14.4904 25.7413
lradius 49.3505
lwrist 37.1812
lhand -22.6273 40.5401
lfingers 7.12502
lthumb 183.803 -109.514
rfemur -64.7571 -12.1355 19.7987
rtibia 108.285
rfoot 25.0163 -10.5153
rtoes 21.9607
lfemur -62.2413 -0.410614 -22.0115
ltibia 105.183
lfoot 30.7869 -9.83048
ltoes -16.108
1310
root -5.07322 1.38692 17.9646 -74.648 -1.29047 1.56342
lowerback -7.26421 2.09242 1.16525
upperback -10.5751 2.49275 -3.56393
thorax -6.82398 0.952076 -4.36561
lowerneck -15.828 -0.398288 -0.0778285
upperneck 24.377 -1.07073 1.85738
head 10.433 -0.282376 0.527664
rclavicle -5.56597e-015 1.76918e-014
rhumerus -29.7835 10.4388 -21.466
rradius 40.6143
rwrist -16.6227
rhand -22.1844 -35.6744
rfingers 7.12502
rthumb 184.231 114.388
lclavicle -5.56597e-015 1.76918e-014
lhumerus -23.6961 -15.068 26.303
lradius 50.439
lwrist 37.8248
lhand -22.8943 40.2271
lfingers 7.12502
lthumb 183.545 -109.823
rfemur -64.8327 -12.455 19.8525
rtibia 108.37
rfoot 24.5452 -10.5243
rtoes 21.8587
lfemur -62.2411 -0.44421 -21.9977
ltibia 105.165
lfoot 30.8073 -9.82818
ltoes -16.1367
